{"title":"Exodus-Gods and Kings(2014)MPEG-4[DaScubaDude]","uid":14799838,"size":1670642612,"categoryP":"video","categoryS":"movies","magnet":"?xt=urn:btih:9acef6d26da1e8d8890ad67cfe206a81e7138eee&amp;dn=Exodus-Gods+and+Kings%282014%29MPEG-4%5BDaScubaDude%5D&amp;tr=udp%3A%2F%2Ftracker.leechers-paradise.org%3A6969&amp;tr=udp%3A%2F%2Fzer0day.ch%3A1337&amp;tr=udp%3A%2F%2Fopen.demonii.com%3A1337&amp;tr=udp%3A%2F%2Ftracker.coppersurfer.tk%3A6969&amp;tr=udp%3A%2F%2Fexodus.desync.com%3A6969","seeders":0,"leechers":0,"uploader":"dascuba","files":1,"time":1465117227,"description":"Exodus: Gods and Kings (2014)\r\nPG-13 | 2h 30min | Action, Adventure, Drama | 12 December 2014 (USA)\r\nThe defiant leader Moses rises up against the Egyptian Pharaoh Ramses, setting 600,000 slaves on a monumental journey of escape from Egypt and its terrifying cycle of deadly plagues.\r\nDirector: Ridley Scott\r\nWriters: Adam Cooper, Bill Collage | \r\nStars: Christian Bale, Joel Edgerton, Ben Kingsley |\r\n\r\nGeneral\r\nComplete name                            : ExodusGodsandKingsEXODUS_GODS_AND_KINGS_Title1.mp4\r\nFormat                                   : MPEG-4\r\nFormat profile                           : Base Media\r\nCodec ID                                 : isom (isom/iso2/avc1/mp41)\r\nFile size                                : 1.56 GiB\r\nDuration                                 : 2h 30mn\r\nOverall bit rate                         : 1 483 Kbps\r\nMovie name                               : EXODUS_GODS_AND_KINGS\r\nGenre                                    : Drama\r\nWriting application                      : Lavf54.6.100\r\n\r\nVideo\r\nID                                       : 1\r\nFormat                                   : AVC\r\nFormat/Info                              : Advanced Video Codec\r\nFormat profile                           :   \r\nFormat settings, CABAC                   : No\r\nFormat settings, ReFrames                : 6 frames\r\nCodec ID                                 : avc1\r\nCodec ID/Info                            : Advanced Video Coding\r\nDuration                                 : 2h 30mn\r\nBit rate                                 : 1 209 Kbps\r\nWidth                                    : 720 pixels\r\nHeight                                   : 404 pixels\r\nDisplay aspect ratio                     : 16:9\r\nFrame rate mode                          : Constant\r\nFrame rate                               : 29.970 (30000/1001) fps\r\nColor space                              : YUV\r\nChroma subsampling                       : 4:2:0\r\nBit depth                                : 8 bits\r\nScan type                                : Progressive\r\nBits/(Pixel*Frame)                       : 0.139\r\nStream size                              : 1.27 GiB (82%)\r\n\r\nAudio\r\nID                                       : 2\r\nFormat                                   : AAC\r\nFormat/Info                              : Advanced Audio Codec\r\nFormat profile                           : LC\r\nCodec ID                                 : 40\r\nDuration                                 : 2h 30mn\r\nBit rate mode                            : Constant\r\nBit rate                                 : 265 Kbps\r\nChannel(s)                               : 2 channels\r\nChannel(s)_Original                      : 6 channels\r\nChannel positions                        : Front: L C R, Side: L R, LFE\r\nSampling rate                            : 44.1 KHz\r\nFrame rate                               : 43.066 fps (1024 spf)\r\nCompression mode                         : Lossy\r\nStream size                              : 287 MiB (18%)\r\nDefault                                  : Yes\r\nAlternate group                          : 1","torrent":{"xt":"urn:btih:9acef6d26da1e8d8890ad67cfe206a81e7138eee","amp;dn":"Exodus-Gods+and+Kings%282014%29MPEG-4%5BDaScubaDude%5D","amp;tr":["udp%3A%2F%2Ftracker.leechers-paradise.org%3A6969","udp%3A%2F%2Fzer0day.ch%3A1337","udp%3A%2F%2Fopen.demonii.com%3A1337","udp%3A%2F%2Ftracker.coppersurfer.tk%3A6969","udp%3A%2F%2Fexodus.desync.com%3A6969"],"infoHash":"9acef6d26da1e8d8890ad67cfe206a81e7138eee","infoHashBuffer":{"type":"Buffer","data":[154,206,246,210,109,161,232,216,137,10,214,124,254,32,106,129,231,19,142,238]},"announce":[],"urlList":[]}}